PathFileType	4	(X/Y/Z)	/Users/itak/Documents/Research/Walk-IL/dataset/trc/00134_00007.trc
DataRate	CameraRate	NumFrames	NumMarkers	Units	OrigDataRate	OrigDataStartFrame	OrigNumFrames
100.000000	100.000000	4	53	mm	100.000000	463	742
Frame#	Time	RPSI			LPSI			L3			STRN			T10			C7			CLAV			RBAK			LBAK			LSHO			LUPA			LAEL			LAOL			LWTS			LWPS			LFRA			LIFD			LHPS			LHTS			RSHO			RUPA			RAEL			RAOL			RWTS			RWPS			RFRA			RIFD			RHTS			RHPS			RBHD			LFHD			RFHD			LBHD			LHIP			RHIP			RASI			LASI			LKNE			LTHI			LANK			LTIP			LTOE			LMT1			LMT5			LHEE			RKNE			RTHI			RANK			RTIP			RTOE			RMT1			RMT5			RHEE			
		X1	Y1	Z1	X2	Y2	Z2	X3	Y3	Z3	X4	Y4	Z4	X5	Y5	Z5	X6	Y6	Z6	X7	Y7	Z7	X8	Y8	Z8	X9	Y9	Z9	X10	Y10	Z10	X11	Y11	Z11	X12	Y12	Z12	X13	Y13	Z13	X14	Y14	Z14	X15	Y15	Z15	X16	Y16	Z16	X17	Y17	Z17	X18	Y18	Z18	X19	Y19	Z19	X20	Y20	Z20	X21	Y21	Z21	X22	Y22	Z22	X23	Y23	Z23	X24	Y24	Z24	X25	Y25	Z25	X26	Y26	Z26	X27	Y27	Z27	X28	Y28	Z28	X29	Y29	Z29	X30	Y30	Z30	X31	Y31	Z31	X32	Y32	Z32	X33	Y33	Z33	X34	Y34	Z34	X35	Y35	Z35	X36	Y36	Z36	X37	Y37	Z37	X38	Y38	Z38	X39	Y39	Z39	X40	Y40	Z40	X41	Y41	Z41	X42	Y42	Z42	X43	Y43	Z43	X44	Y44	Z44	X45	Y45	Z45	X46	Y46	Z46	X47	Y47	Z47	X48	Y48	Z48	X49	Y49	Z49	X50	Y50	Z50	X51	Y51	Z51	X52	Y52	Z52	X53	Y53	Z53	

464	4.63	615.5021362304688	1094.937622070312	-398.2561950683594	713.6923828125	1113.588134765625	-484.7235412597656	659.3883666992188	1137.6376953125	-445.2111206054688	795.1466674804688	1336.258178710938	-269.8405151367188	624.359130859375	1286.721801757812	-453.1435546875	644.7111206054688	1579.8173828125	-434.7900695800781	769.9480590820312	1470.797607421875	-298.5950927734375	550.4014282226562	1392.124389648438	-418.0096435546875	713.201171875	1563.518920898438	-509.5206909179688	822.4916381835938	1554.098266601562	-495.9171447753906	860.03515625	1430.382080078125	-573.1417846679688	889.5457153320312	1217.616088867188	-608.5930786132812	802.2698974609375	1200.115478515625	-604.6499633789062	954.4176635742188	951.7994384765625	-551.4488525390625	903.8306884765625	933.0284423828125	-622.6493530273438	909.5360717773438	1102.350341796875	-618.11474609375	952.3822631835938	756.805908203125	-548.8209838867188	930.24365234375	857.3924560546875	-616.9661865234375	975.8644409179688	863.5147705078125	-564.0364379882812	553.9054565429688	1553.029174804688	-269.3386840820312	498.1732177734375	1477.80810546875	-240.8998565673828	475.9176940917969	1184.724487304688	-247.9354095458984	545.6455688476562	1186.107177734375	-317.7369689941406	577.9790649414062	933.7235107421875	-164.7050628662109	504.1744079589844	921.6388549804688	-202.3049926757812	480.1129455566406	1110.448486328125	-224.4501037597656	602.1149291992188	739.9691772460938	-175.5149383544922	589.9066772460938	823.1964111328125	-146.7660522460938	523.352294921875	819.5111694335938	-178.9123992919922	611.9603881835938	1749.803833007812	-353.9624938964844	804.0213012695312	1808.599853515625	-260.0164794921875	691.0389404296875	1794.356567382812	-198.832275390625	726.5514526367188	1769.006469726562	-421.8964538574219	865.1821899414062	1039.992431640625	-485.700927734375	605.3801879882812	982.3311767578125	-239.4205322265625	694.309814453125	1063.166748046875	-198.1043395996094	893.3074340820312	1093.2880859375	-372.4926452636719	964.4424438476562	555.5413818359375	-356.9033508300781	943.0753173828125	691.8131103515625	-423.3102111816406	979.5535278320312	29.89203834533691	-413.5130004882812	978.7584228515625	296.2116394042969	-432.045654296875	1019.096130371094	38.42417907714844	-181.4092254638672	957.5948486328125	41.48369598388672	-239.4896850585938	1052.728881835938	31.34951019287109	-310.3257446289062	893.40966796875	31.30508041381836	-451.0166625976562	652.6923217773438	489.2194213867188	-317.2731018066406	639.8070678710938	767.7002563476562	-253.6380615234375	360.140625	150.0025787353516	-610.0609741210938	573.60791015625	387.3981628417969	-379.7462463378906	546.9315185546875	32.87677764892578	-614.560546875	516.03759765625	62.57620239257812	-664.0928344726562	440.2510070800781	48.64701461791992	-575.4464111328125	352.3227844238281	208.0115509033203	-656.8407592773438	
465	4.64	622.7366943359375	1095.971435546875	-394.3108215332031	723.10791015625	1115.259033203125	-478.7138671875	667.6448974609375	1139.45703125	-440.2130737304688	801.1304321289062	1337.633422851562	-262.1396484375	633.9730224609375	1288.509643554688	-448.7232055664062	654.2388916015625	1581.552978515625	-429.7471618652344	776.7011108398438	1472.236083984375	-291.294189453125	559.3428955078125	1394.024047851562	-414.7936706542969	724.137451171875	1565.234619140625	-503.1819458007812	833.0184936523438	1555.640014648438	-487.3683166503906	872.2316284179688	1432.212646484375	-564.1109619140625	902.6804809570312	1219.474243164062	-599.2215576171875	815.4878540039062	1202.01953125	-597.2176513671875	966.4031982421875	953.4708862304688	-541.2499389648438	917.331298828125	934.8698120117188	-613.5087280273438	922.9085083007812	1104.197387695312	-608.5533447265625	964.15234375	758.399658203125	-539.1213989257812	943.6364135742188	859.2564697265625	-607.4632568359375	988.0968627929688	865.2012329101562	-553.5721435546875	560.4608154296875	1554.851806640625	-265.9569396972656	503.8753967285156	1479.84716796875	-238.6763000488281	480.2745361328125	1186.973510742188	-246.4370880126953	550.680908203125	1188.252563476562	-315.3782958984375	579.60009765625	935.1202392578125	-162.458984375	506.276611328125	923.5441284179688	-201.4043731689453	483.814453125	1112.639892578125	-223.1405334472656	603.1388549804688	741.2747802734375	-174.0364837646484	590.8368530273438	824.3781127929688	-144.9448394775391	524.75439453125	821.1517333984375	-178.2467193603516	619.8937377929688	1751.416748046875	-349.2549743652344	810.6719970703125	1810.35546875	-253.1195373535156	696.9862670898438	1796.1396484375	-193.3007202148438	735.1815795898438	1770.609252929688	-415.8746032714844	874.1539916992188	1041.633056640625	-477.4437255859375	611.1160278320312	983.1298217773438	-235.4389953613281	698.777587890625	1064.270141601562	-192.9389801025391	900.935791015625	1094.847900390625	-363.812744140625	968.5859985351562	554.8107299804688	-354.578369140625	948.6370849609375	691.9119873046875	-419.6239624023438	979.5145874023438	30.03394508361816	-413.3717956542969	980.6823120117188	295.8334350585938	-431.0601806640625	1019.102783203125	37.62616348266602	-180.6042022705078	957.72021484375	41.35036468505859	-239.3359680175781	1053.01806640625	31.32633972167969	-310.3062438964844	893.4161987304688	31.40053558349609	-450.9424743652344	666.887451171875	489.3936767578125	-303.8945007324219	648.5470581054688	768.5962524414062	-246.1844940185547	370.3543090820312	160.8554229736328	-603.6323852539062	587.7405395507812	388.9058837890625	-367.4851684570312	548.9230346679688	32.01037979125977	-610.98828125	521.9567260742188	67.01752471923828	-659.1305541992188	443.8019104003906	53.17148590087891	-572.5929565429688	366.5085754394531	220.7770690917969	-648.0555419921875	
466	4.65	629.3624877929688	1096.95703125	-390.3946228027344	732.1512451171875	1116.762451171875	-472.7442626953125	675.517333984375	1141.255981445312	-435.2034912109375	806.7905883789062	1338.895141601562	-254.5019836425781	643.3483276367188	1290.265869140625	-444.6027526855469	663.663818359375	1583.2392578125	-424.6467895507812	783.1512451171875	1473.558959960938	-283.9680480957031	568.1715087890625	1395.884887695312	-411.7052612304688	735.0279541015625	1566.946899414062	-496.7183837890625	843.4456176757812	1557.12060546875	-478.6041564941406	884.3779907226562	1433.981689453125	-554.7637329101562	915.7950439453125	1221.279418945312	-589.5604248046875	828.719970703125	1203.852783203125	-589.6633911132812	978.246826171875	955.1034545898438	-530.6925659179688	930.85791015625	936.655029296875	-604.0675048828125	936.2711181640625	1105.9951171875	-598.684814453125	975.8648071289062	759.96142578125	-529.0414428710938	957.0468139648438	861.0556030273438	-597.595458984375	1000.22802734375	866.8524780273438	-542.6940307617188	566.7869873046875	1556.585083007812	-262.6755981445312	509.2806701660156	1481.796020507812	-236.6625518798828	484.4690551757812	1189.09765625	-245.0367279052734	555.4461669921875	1190.246215820312	-313.1125183105469	581.3715209960938	936.5677490234375	-160.1907806396484	508.4193115234375	925.4219360351562	-200.2990417480469	487.4571838378906	1114.724487304688	-221.8263549804688	604.4655151367188	742.6510620117188	-172.3083038330078	592.023681640625	825.6605224609375	-142.9950408935547	526.3501586914062	822.8043212890625	-177.2871246337891	627.681640625	1752.899047851562	-344.4634399414062	817.156982421875	1812.064086914062	-246.1529998779297	702.781494140625	1797.849609375	-187.7023162841797	743.6737670898438	1772.104614257812	-409.7522277832031	882.8159790039062	1043.122436523438	-469.3333129882812	616.76708984375	984.0022583007812	-231.1508178710938	703.0716552734375	1065.271606445312	-187.8624267578125	908.2506103515625	1096.289672851562	-355.2818908691406	972.4667358398438	554.0835571289062	-352.3667907714844	953.9720458984375	692.0341796875	-415.8991394042969	979.4603271484375	30.17616081237793	-413.2262268066406	982.5875244140625	295.4771728515625	-430.0389404296875	1019.107421875	36.92616653442383	-179.8171997070312	957.8363647460938	41.23056793212891	-239.1818389892578	1053.273193359375	31.30648231506348	-310.2716369628906	893.3916015625	31.48626327514648	-450.8546447753906	681.0496826171875	489.9247436523438	-290.2489929199219	657.211669921875	769.60498046875	-238.5701751708984	381.533935546875	171.8391571044922	-596.8573608398438	602.0761108398438	390.5898742675781	-354.9100952148438	551.3905639648438	31.19864082336426	-606.3667602539062	528.9076538085938	71.58984375	-653.0301513671875	447.9442138671875	58.58317565917969	-569.07666015625	381.7493896484375	233.3058471679688	-638.9119873046875	
467	4.66	635.5350341796875	1097.893920898438	-386.4705505371094	740.8131103515625	1118.1005859375	-466.811279296875	683.0994873046875	1143.01904296875	-430.154052734375	812.1616821289062	1340.062622070312	-246.9650115966797	652.4530639648438	1291.9912109375	-440.7651977539062	672.962158203125	1584.866821289062	-419.4996643066406	789.3082275390625	1474.783447265625	-276.6484375	576.8886108398438	1397.6943359375	-408.7178039550781	745.8277587890625	1568.64208984375	-490.1503295898438	853.7345581054688	1558.548828125	-469.6698913574219	896.4320068359375	1435.681762695312	-545.1175537109375	928.8848876953125	1223.027954101562	-579.590087890625	841.9622192382812	1205.591064453125	-581.9639282226562	989.931396484375	956.6906127929688	-519.7711181640625	944.412353515625	938.3864135742188	-594.3185424804688	949.623046875	1107.748901367188	-588.4849853515625	987.5156860351562	761.4878540039062	-518.5919189453125	970.469482421875	862.7881469726562	-587.3644409179688	1012.235412597656	868.464599609375	-531.3997802734375	572.8916625976562	1558.234130859375	-259.50048828125	514.403076171875	1483.660034179688	-234.8642883300781	488.5100402832031	1191.103515625	-243.7935943603516	560.0711059570312	1192.106811523438	-310.935302734375	583.2599487304688	938.0594482421875	-157.8869171142578	510.6050415039062	927.2655029296875	-199.0733947753906	491.0490112304688	1116.701538085938	-220.5764770507812	606.0208129882812	744.084228515625	-170.2630767822266	593.3992309570312	827.039306640625	-140.8678588867188	528.10107421875	824.4730224609375	-176.0716247558594	635.329833984375	1754.265380859375	-339.585205078125	823.4805908203125	1813.70361328125	-239.1152038574219	708.4325561523438	1799.479736328125	-182.0321960449219	752.0236206054688	1773.49072265625	-403.529541015625	891.2048950195312	1044.486328125	-461.3972473144531	622.3490600585938	984.9767456054688	-226.5643920898438	707.2653198242188	1066.2041015625	-182.8467102050781	915.2534790039062	1097.58544921875	-346.9126892089844	976.1279907226562	553.3823852539062	-350.1587219238281	959.142578125	692.22705078125	-412.0068054199219	979.4234008789062	30.30765914916992	-413.0895385742188	984.5469360351562	295.1654968261719	-428.8953247070312	1019.116638183594	36.30290603637695	-179.0818634033203	957.9486694335938	41.11685562133789	-239.0393371582031	1053.511596679688	31.28613662719727	-310.2351379394531	893.3804931640625	31.57735824584961	-450.778076171875	695.0726318359375	490.8481750488281	-276.3793640136719	665.7675170898438	770.7572021484375	-230.8031158447266	393.656494140625	182.6850128173828	-589.7758178710938	616.4735107421875	392.4954528808594	-342.0895385742188	554.5775146484375	30.57739639282227	-600.4676513671875	537.045654296875	76.13813018798828	-645.67333984375	452.847412109375	64.67493438720703	-564.8021850585938	397.9173278808594	245.3112487792969	-629.5568237304688	
